<svg id="Layer_1" data-name="Layer 1" xmlns="http://www.w3.org/2000/svg" viewBox="0 0 152.37 45.34"><defs><style>.cls-1{fill:#006867;}.cls-2{fill:#f8961d;}.cls-3{fill:#063f20;}.cls-4{fill:#fff;}</style></defs><title>Logo</title><path class="cls-1" d="M61.7,10.69l.68,4.42h-.14a5.6,5.6,0,0,0-5.94-4.64h-.47c-.37,0-.32.32-.32.32v6.4a.24.24,0,0,0,.25.27H57c1.22,0,1.73-1.44,2-2.18h.15v4.55H59c-.32-.71-.83-2.15-2-2.15h-1.2a.24.24,0,0,0-.25.27v5.57a1.23,1.23,0,0,0,.86,1.22v.15h-4.5v-.15a1.24,1.24,0,0,0,.86-1.24V11.64a1.26,1.26,0,0,0-.86-1.25v-.14h9.34A.49.49,0,0,1,61.7,10.69Z" transform="translate(-1.82 -2.33)"/><path class="cls-1" d="M71.55,19.81a5.14,5.14,0,0,1-5.25,5.08h0a5.06,5.06,0,1,1,0-10.12A5.19,5.19,0,0,1,71.55,19.81Zm-3-.52c-.95-3.76-2-4.49-3.42-4.15a1.78,1.78,0,0,0-1.45,1.34,8.61,8.61,0,0,0,.3,3.91c1,3.77,2,4.5,3.42,4.16S69.45,23.08,68.57,19.29Z" transform="translate(-1.82 -2.33)"/><path class="cls-1" d="M83.78,24.74v.15h-3s-.66.05-.66-.81V23c0-.05,0-.1-.07,0A3.58,3.58,0,0,1,77,24.89c-2.2,0-3.79-1.39-3.79-3.3V17.7a1.24,1.24,0,0,0-.85-1.24v-.15a9,9,0,0,0,3.54-1.54H76v7.07c0,.92.54,2.29,1.79,2.29a3,3,0,0,0,2.32-1.59.45.45,0,0,0,0-.14V17.68a1.24,1.24,0,0,0-.85-1.22v-.15a9,9,0,0,0,3.54-1.54h.1V23.5A1.24,1.24,0,0,0,83.78,24.74Z" transform="translate(-1.82 -2.33)"/><path class="cls-1" d="M96.46,24.74v.15H92v-.15a1.24,1.24,0,0,0,.85-1.24V17.83c0-1-.54-2.3-1.81-2.3a3,3,0,0,0-2.32,1.61V23.5a1.24,1.24,0,0,0,.86,1.24v.15h-4.5v-.15a1.24,1.24,0,0,0,.85-1.24V17.44a1.25,1.25,0,0,0-.85-1.25V16a6.83,6.83,0,0,0,3.54-1.27h.1V16.7s0,.08,0,0a3.53,3.53,0,0,1,3.08-2c2.22,0,3.81,1.39,3.81,3.28V23.5A1.24,1.24,0,0,0,96.46,24.74Z" transform="translate(-1.82 -2.33)"/><path class="cls-1" d="M108.37,24.74v.15h-3s-.61.05-.66-.73c0-.08,0-.05-.07-.05a4.58,4.58,0,0,1-2.62.78,4.9,4.9,0,0,1-4.82-5.06,5,5,0,0,1,5.06-5.06,2.79,2.79,0,0,1,2.35,1.1c.05.05.1,0,.1,0V12.91a1.29,1.29,0,0,0-.86-1.24v-.15a6.85,6.85,0,0,0,3.55-1.27h.1V23.5A1.23,1.23,0,0,0,108.37,24.74Zm-3.64-2.83V16.56a1.85,1.85,0,0,0-1.35-1.28c-1.44-.29-2.66,1.47-3.17,4.09s.07,4.93,1.32,5.2,2.51-.49,3.17-2.51C104.73,22,104.73,22,104.73,21.91Z" transform="translate(-1.82 -2.33)"/><path class="cls-1" d="M119.5,24.74v.15h-3.13a.52.52,0,0,1-.52-.56v-1.1s0-.07-.07,0a3.33,3.33,0,0,1-3.1,1.64c-1.4,0-3.5-.76-3.5-2.74,0-3.57,5.43-3.86,6.5-3.91.08,0,.17,0,.17-.14v-.79A2.14,2.14,0,0,0,113.9,15c-2.37,0-2.57,2.32-2.79,3.72H111l-1.1-2.62a.39.39,0,0,1,.15-.49,7.72,7.72,0,0,1,3.91-.83c3.57,0,4.72,2.08,4.72,3.33v5.4A1.29,1.29,0,0,0,119.5,24.74Zm-3.65-2.12v-4c0-.14-.09-.14-.14-.14-1.86.31-3.74.9-3.74,3.42,0,1.64,2.64,3.13,3.86.83A.55.55,0,0,0,115.85,22.62Z" transform="translate(-1.82 -2.33)"/><path class="cls-1" d="M125.29,24a2.85,2.85,0,0,1-1.83.9c-1.57,0-2.79-1-2.79-3.27V15.19a.18.18,0,0,0-.2-.2h-.66v-.22a6.24,6.24,0,0,0,3.52-2.86h.13V14.6c0,.2.12.17.17.17h1.27V15h-1.27a.15.15,0,0,0-.17.17l0,7.8c0,1.37.93,1.39,1.84.93Z" transform="translate(-1.82 -2.33)"/><path class="cls-1" d="M130.67,24.74v.15h-4.5v-.15A1.24,1.24,0,0,0,127,23.5V17.44a1.25,1.25,0,0,0-.86-1.25V16a6.85,6.85,0,0,0,3.55-1.27h.09V23.5A1.24,1.24,0,0,0,130.67,24.74Z" transform="translate(-1.82 -2.33)"/><path class="cls-2" d="M128.1,14.06a1.7,1.7,0,1,1,1.71-1.71A1.7,1.7,0,0,1,128.1,14.06Z" transform="translate(-1.82 -2.33)"/><path class="cls-1" d="M141.94,19.81a5.15,5.15,0,0,1-5.26,5.08h0a5.16,5.16,0,0,1-5.26-5,5.27,5.27,0,0,1,10.54-.05Zm-3-.52c-1-3.76-2-4.49-3.43-4.15a1.78,1.78,0,0,0-1.44,1.34,8.61,8.61,0,0,0,.3,3.91c1,3.77,2,4.5,3.42,4.16S139.84,23.08,139,19.29Z" transform="translate(-1.82 -2.33)"/><path class="cls-1" d="M154.07,24.74v.15h-4.5v-.15a1.23,1.23,0,0,0,.85-1.24V17.83c0-1-.53-2.3-1.8-2.3a3,3,0,0,0-2.33,1.61V23.5a1.24,1.24,0,0,0,.86,1.24v.15h-4.5v-.15a1.24,1.24,0,0,0,.86-1.24V17.44a1.25,1.25,0,0,0-.86-1.25V16a6.87,6.87,0,0,0,3.55-1.27h.09V16.7s0,.08,0,0a3.54,3.54,0,0,1,3.08-2c2.22,0,3.81,1.39,3.81,3.28V23.5A1.24,1.24,0,0,0,154.07,24.74Z" transform="translate(-1.82 -2.33)"/><path class="cls-3" d="M57.16,34.22h.07l-.34,2.23s0,.2-.22.2H52v-.07a.63.63,0,0,0,.43-.62V30a.63.63,0,0,0-.43-.62v-.08h4.68c.17,0,.22.21.22.21l.34,2.22h-.07a2.8,2.8,0,0,0-3-2.32H54a.13.13,0,0,0-.15.16v3.2a.11.11,0,0,0,.12.13h.6c.61,0,.86-.72,1-1.08h.07v2.27h-.07c-.16-.36-.41-1.08-1-1.08h-.6a.12.12,0,0,0-.12.14v3.19a.13.13,0,0,0,.15.16h.24A2.79,2.79,0,0,0,57.16,34.22Z" transform="translate(-1.82 -2.33)"/><path class="cls-3" d="M63.83,36.58v.07H61.59v-.07A.62.62,0,0,0,62,36V33.13c0-.48-.26-1.15-.9-1.15a1.46,1.46,0,0,0-1.16.81V36a.63.63,0,0,0,.43.62v.07H58.14v-.07a.62.62,0,0,0,.42-.62v-3a.62.62,0,0,0-.42-.62v-.07a3.4,3.4,0,0,0,1.76-.64H60v1s0,0,0,0a1.83,1.83,0,0,1,3.44.66V36A.62.62,0,0,0,63.83,36.58Z" transform="translate(-1.82 -2.33)"/><path class="cls-3" d="M70.07,38h0c0,.81-.68,1.77-3.07,1.77a6.94,6.94,0,0,1-2.84-.9c-.16-.09,0-.26,0-.26L65,36.86l.1,0a2.31,2.31,0,0,0,2,2.73A1.61,1.61,0,0,0,68.63,38a1.75,1.75,0,0,0-1.77-1.7H65.33c-.11,0-.06-.08-.06-.08l.37-.76s0,0,0,0a2.12,2.12,0,0,1-1.15-1.85,2.43,2.43,0,0,1,2.72-2,2.87,2.87,0,0,1,.89.17h0a2.16,2.16,0,0,1,1.2-1.2h.08v1.18h-.08a.87.87,0,0,0-1.12,0s0,0,0,0a2.18,2.18,0,0,1,1.54,2,2.42,2.42,0,0,1-2.72,2,3.26,3.26,0,0,1-1.27-.33h0l-.33.68h1.48C69.36,36.21,70.07,37.14,70.07,38Zm-4.08-4c.42,1.49,1.06,1.88,1.7,1.76s1-.7.57-2.18-1.06-1.88-1.68-1.76S65.56,32.43,66,33.93Z" transform="translate(-1.82 -2.33)"/><path class="cls-3" d="M72.77,36.58v.07H70.53v-.07A.62.62,0,0,0,71,36v-3a.62.62,0,0,0-.42-.62v-.07a3.44,3.44,0,0,0,1.77-.64h0V36A.63.63,0,0,0,72.77,36.58Zm-1.28-5.33a.85.85,0,1,1,.85-.86A.85.85,0,0,1,71.49,31.25Z" transform="translate(-1.82 -2.33)"/><path class="cls-3" d="M79.46,36.58v.07H77.21v-.07a.63.63,0,0,0,.43-.62V33.13c0-.48-.27-1.15-.9-1.15a1.45,1.45,0,0,0-1.16.81V36a.62.62,0,0,0,.42.62v.07H73.76v-.07a.63.63,0,0,0,.43-.62v-3a.63.63,0,0,0-.43-.62v-.07a3.44,3.44,0,0,0,1.77-.64h0v1s0,0,0,0a1.76,1.76,0,0,1,1.54-1A1.73,1.73,0,0,1,79,33.24V36A.62.62,0,0,0,79.46,36.58Z" transform="translate(-1.82 -2.33)"/><path class="cls-3" d="M81.59,34.62c.49,1.81,2.78,1.12,3.11.78l0,.05a2.36,2.36,0,0,1-2,1.19,2.64,2.64,0,0,1-2.7-2.78,2.42,2.42,0,0,1,2.74-2.25,2.16,2.16,0,0,1,2,1.58.13.13,0,0,1-.06.16l-3.06,1.13C81.55,34.53,81.58,34.6,81.59,34.62Zm-.07-.37a.17.17,0,0,0,0,.07c0,.09.1,0,.1,0l1.68-.62a.15.15,0,0,0,.07-.14c0-.82-.22-1.87-.9-1.87C81.47,31.77,81.41,33.49,81.52,34.25Z" transform="translate(-1.82 -2.33)"/><path class="cls-3" d="M87.19,34.62c.49,1.81,2.78,1.12,3.11.78l0,.05a2.36,2.36,0,0,1-2,1.19,2.64,2.64,0,0,1-2.7-2.78,2.42,2.42,0,0,1,2.74-2.25,2.16,2.16,0,0,1,2,1.58.13.13,0,0,1-.06.16l-3.06,1.13C87.15,34.53,87.17,34.6,87.19,34.62Zm-.08-.37a.1.1,0,0,0,0,.07c0,.09.09,0,.09,0l1.69-.62a.15.15,0,0,0,.07-.14c0-.82-.22-1.87-.9-1.87C87.07,31.77,87,33.49,87.11,34.25Z" transform="translate(-1.82 -2.33)"/><path class="cls-3" d="M95.64,32.15l-.52,1.56H95c0-.73-.22-1.56-.8-1.56-.81,0-1.23,1.23-1.3,1.39V36a.63.63,0,0,0,.43.62v.07H91.13v-.07a.62.62,0,0,0,.42-.62v-3a.62.62,0,0,0-.42-.62v-.07a3.44,3.44,0,0,0,1.77-.64h0v1.54s0,0,0,0c.11-.29.57-1.55,1.51-1.55a1.68,1.68,0,0,1,1.11.34A.19.19,0,0,1,95.64,32.15Z" transform="translate(-1.82 -2.33)"/><path class="cls-3" d="M98.73,36.58v.07H96.48v-.07a.63.63,0,0,0,.43-.62v-3a.63.63,0,0,0-.43-.62v-.07a3.44,3.44,0,0,0,1.77-.64h0V36A.62.62,0,0,0,98.73,36.58Zm-1.29-5.33a.85.85,0,1,1,.86-.86A.85.85,0,0,1,97.44,31.25Z" transform="translate(-1.82 -2.33)"/><path class="cls-3" d="M105.41,36.58v.07h-2.24v-.07a.62.62,0,0,0,.42-.62V33.13c0-.48-.27-1.15-.9-1.15a1.46,1.46,0,0,0-1.16.81V36a.62.62,0,0,0,.43.62v.07H99.71v-.07a.62.62,0,0,0,.43-.62v-3a.62.62,0,0,0-.43-.62v-.07a3.44,3.44,0,0,0,1.77-.64h0v1s0,0,0,0a1.78,1.78,0,0,1,1.54-1,1.73,1.73,0,0,1,1.9,1.64V36A.63.63,0,0,0,105.41,36.58Z" transform="translate(-1.82 -2.33)"/><path class="cls-3" d="M111.64,38h0c0,.81-.67,1.77-3.06,1.77a6.94,6.94,0,0,1-2.84-.9c-.16-.09,0-.26,0-.26l.84-1.73.1,0a2.31,2.31,0,0,0,2,2.73A1.6,1.6,0,0,0,110.2,38a1.75,1.75,0,0,0-1.77-1.7h-1.52c-.11,0-.06-.08-.06-.08l.36-.76s0,0,0,0a2.09,2.09,0,0,1-1.14-1.85,2.43,2.43,0,0,1,2.72-2,2.93,2.93,0,0,1,.89.17h0a2.16,2.16,0,0,1,1.21-1.2H111v1.18h-.07a.87.87,0,0,0-1.12,0s0,0,0,0a2.18,2.18,0,0,1,1.54,2,2.42,2.42,0,0,1-2.73,2,3.22,3.22,0,0,1-1.26-.33h0l-.33.68h1.48C110.93,36.21,111.64,37.14,111.64,38Zm-4.07-4c.41,1.49,1.06,1.88,1.69,1.76s1-.7.58-2.18-1.06-1.88-1.69-1.76S107.14,32.43,107.57,33.93Z" transform="translate(-1.82 -2.33)"/><path class="cls-3" d="M120.24,34.77c0,1.68-1.66,1.88-2.62,1.88a3.28,3.28,0,0,1-2.27-.68c-.09-.09-.06-.13,0-.23l.34-1.54h.08c-.06.73.84,2.34,2,2.34a1.14,1.14,0,0,0,1.15-1.29c-.25-1.46-3.61-1.76-3.61-4,0-1.67,1.86-1.87,2.56-1.87a5.47,5.47,0,0,1,2,.47.21.21,0,0,1,.12.25l-.43,1.49h-.07c.11-.78-.82-2.1-1.65-2.1a1.13,1.13,0,0,0-1.13,1.26C116.63,32.36,120.24,32.66,120.24,34.77Z" transform="translate(-1.82 -2.33)"/><path class="cls-3" d="M126.5,34.11a2.57,2.57,0,0,1-2.63,2.54h0a2.53,2.53,0,1,1,0-5A2.6,2.6,0,0,1,126.5,34.11ZM125,33.86c-.48-1.88-1-2.25-1.71-2.08a.9.9,0,0,0-.72.68,4.29,4.29,0,0,0,.15,1.95c.47,1.88,1,2.24,1.71,2.07S125.45,35.75,125,33.86Z" transform="translate(-1.82 -2.33)"/><path class="cls-3" d="M129.4,36.58v.07h-2.25v-.07a.62.62,0,0,0,.43-.62V30.67a.64.64,0,0,0-.43-.62V30a3.42,3.42,0,0,0,1.77-.64H129V36A.63.63,0,0,0,129.4,36.58Z" transform="translate(-1.82 -2.33)"/><path class="cls-3" d="M135.64,36.58v.07h-1.48s-.33,0-.33-.4v-.54s0,0,0,0a1.76,1.76,0,0,1-1.52.94,1.73,1.73,0,0,1-1.9-1.64V33.07a.63.63,0,0,0-.42-.63v-.07a4.48,4.48,0,0,0,1.77-.77h.05v3.53c0,.46.26,1.14.89,1.14a1.48,1.48,0,0,0,1.16-.79.23.23,0,0,0,0-.07V33.05a.63.63,0,0,0-.43-.61v-.07a4.48,4.48,0,0,0,1.77-.77h.05V36A.62.62,0,0,0,135.64,36.58Z" transform="translate(-1.82 -2.33)"/><path class="cls-3" d="M139,36.2a1.41,1.41,0,0,1-.92.45c-.78,0-1.39-.49-1.39-1.63V31.81a.09.09,0,0,0-.1-.1h-.33V31.6A3.11,3.11,0,0,0,138,30.17h.06v1.35c0,.09.06.08.09.08h.63v.11h-.63a.08.08,0,0,0-.09.09v3.89c0,.68.46.69.91.46Z" transform="translate(-1.82 -2.33)"/><path class="cls-3" d="M142,36.58v.07H139.7v-.07a.62.62,0,0,0,.43-.62v-3a.62.62,0,0,0-.43-.62v-.07a3.44,3.44,0,0,0,1.77-.64h.05V36A.63.63,0,0,0,142,36.58Zm-1.28-5.33a.85.85,0,1,1,.85-.86A.85.85,0,0,1,140.67,31.25Z" transform="translate(-1.82 -2.33)"/><path class="cls-3" d="M147.85,34.11a2.56,2.56,0,0,1-2.62,2.54h0a2.53,2.53,0,1,1,2.63-2.54Zm-1.49-.25c-.47-1.88-1-2.25-1.7-2.08a.88.88,0,0,0-.72.68,4.24,4.24,0,0,0,.14,1.95c.48,1.88,1,2.24,1.71,2.07S146.8,35.75,146.36,33.86Z" transform="translate(-1.82 -2.33)"/><path class="cls-3" d="M154.18,36.58v.07h-2.24v-.07a.63.63,0,0,0,.43-.62V33.13c0-.48-.27-1.15-.91-1.15a1.46,1.46,0,0,0-1.16.81V36a.63.63,0,0,0,.43.62v.07h-2.24v-.07a.62.62,0,0,0,.42-.62v-3a.62.62,0,0,0-.42-.62v-.07a3.4,3.4,0,0,0,1.76-.64h.05v1s0,0,0,0a1.76,1.76,0,0,1,1.53-1,1.74,1.74,0,0,1,1.91,1.64V36A.62.62,0,0,0,154.18,36.58Z" transform="translate(-1.82 -2.33)"/><path class="cls-3" d="M36.48,9.27l-.2-.71H7.72l-.2.71c-.87,3.06-1.59,6-2.14,8.59h2c.49-2.28,1.1-4.75,1.83-7.37H34.82c.73,2.62,1.34,5.09,1.83,7.37h2C38.06,15.22,37.35,12.34,36.48,9.27Z" transform="translate(-1.82 -2.33)"/><path class="cls-3" d="M36.64,33C33.7,38.28,26.77,43,22,45.5,19.21,44,10.69,39.07,7.35,33H5.19c3.33,7.14,13,12.67,16.39,14.43l.44.23.44-.23C24,46.68,35.14,40.79,38.8,33Z" transform="translate(-1.82 -2.33)"/><path class="cls-1" d="M5.69,20.09,6,21.84h0A2.22,2.22,0,0,0,3.56,20H3.38c-.15,0-.13.12-.13.12v2.53a.1.1,0,0,0,.1.11h.47c.48,0,.69-.57.81-.86h.06V23.7H4.63c-.12-.28-.33-.85-.81-.85H3.35a.1.1,0,0,0-.1.11v2.2a.5.5,0,0,0,.34.48v.06H1.82v-.06a.49.49,0,0,0,.33-.49V20.47A.48.48,0,0,0,1.82,20v-.06H5.5A.19.19,0,0,1,5.69,20.09Z" transform="translate(-1.82 -2.33)"/><path class="cls-1" d="M9.58,23.69a2,2,0,0,1-2.07,2h0a2,2,0,1,1,2.08-2Zm-1.18-.2C8,22,7.62,21.71,7.05,21.85a.68.68,0,0,0-.56.53,3.35,3.35,0,0,0,.11,1.54C7,25.41,7.39,25.7,8,25.56S8.75,25,8.4,23.49Z" transform="translate(-1.82 -2.33)"/><path class="cls-1" d="M14.4,25.64v.06H13.23s-.26,0-.26-.32V25s0,0,0,0a1.4,1.4,0,0,1-1.21.75,1.36,1.36,0,0,1-1.49-1.3V22.86a.5.5,0,0,0-.34-.49v-.06a3.47,3.47,0,0,0,1.4-.61h0v2.79c0,.37.21.91.7.91a1.18,1.18,0,0,0,.92-.63.18.18,0,0,0,0-.06V22.85a.5.5,0,0,0-.34-.48v-.06A3.47,3.47,0,0,0,14,21.7h0v3.45A.49.49,0,0,0,14.4,25.64Z" transform="translate(-1.82 -2.33)"/><path class="cls-1" d="M19.41,25.64v.06H17.64v-.06a.49.49,0,0,0,.33-.49V22.91c0-.38-.21-.91-.71-.91a1.17,1.17,0,0,0-.92.64v2.51a.5.5,0,0,0,.34.49v.06H14.91v-.06a.49.49,0,0,0,.33-.49V22.76a.5.5,0,0,0-.33-.5v-.05a2.65,2.65,0,0,0,1.39-.51h0v.77s0,0,0,0a1.41,1.41,0,0,1,1.22-.78,1.36,1.36,0,0,1,1.5,1.3v2.15A.5.5,0,0,0,19.41,25.64Z" transform="translate(-1.82 -2.33)"/><path class="cls-1" d="M24.11,25.64v.06H22.93s-.24,0-.26-.29c0,0,0,0,0,0a1.8,1.8,0,0,1-1,.31,1.94,1.94,0,0,1-1.9-2,2,2,0,0,1,2-2,1.11,1.11,0,0,1,.92.44s0,0,0,0V21a.52.52,0,0,0-.34-.49v-.06a2.74,2.74,0,0,0,1.4-.5h0v5.23A.5.5,0,0,0,24.11,25.64Zm-1.44-1.12V22.41a.71.71,0,0,0-.53-.5c-.57-.12-1.05.58-1.25,1.61s0,1.95.52,2.05,1-.19,1.25-1C22.67,24.57,22.67,24.54,22.67,24.52Z" transform="translate(-1.82 -2.33)"/><path class="cls-1" d="M28.5,25.64v.06H27.26a.2.2,0,0,1-.2-.22V25s0,0,0,0a1.32,1.32,0,0,1-1.22.65c-.55,0-1.38-.3-1.38-1.08,0-1.41,2.14-1.53,2.56-1.55,0,0,.07,0,.07-.05v-.31a.85.85,0,0,0-.77-.92c-.94,0-1,.92-1.1,1.47h-.06l-.43-1a.16.16,0,0,1,.05-.2,3.14,3.14,0,0,1,1.55-.33c1.41,0,1.86.82,1.86,1.32v2.13A.51.51,0,0,0,28.5,25.64Zm-1.44-.84V23.23c0-.06,0-.06-.06-.06-.73.13-1.47.36-1.47,1.35a.8.8,0,0,0,1.52.33A.2.2,0,0,0,27.06,24.8Z" transform="translate(-1.82 -2.33)"/><path class="cls-1" d="M30.78,25.34a1.13,1.13,0,0,1-.72.36c-.62,0-1.1-.39-1.1-1.3V21.87a.07.07,0,0,0-.08-.08h-.26V21.7A2.46,2.46,0,0,0,30,20.58h0v1.06c0,.07.05.06.07.06h.5v.09h-.5a.06.06,0,0,0-.07.07v3.08c0,.54.37.54.72.36Z" transform="translate(-1.82 -2.33)"/><path class="cls-1" d="M32.9,25.64v.06H31.13v-.06a.5.5,0,0,0,.34-.49V22.76a.5.5,0,0,0-.34-.5v-.05a2.69,2.69,0,0,0,1.4-.51h0v3.45A.49.49,0,0,0,32.9,25.64Z" transform="translate(-1.82 -2.33)"/><path class="cls-2" d="M31.89,21.42a.67.67,0,0,1,0-1.34.67.67,0,1,1,0,1.34Z" transform="translate(-1.82 -2.33)"/><path class="cls-1" d="M37.35,23.69a2,2,0,0,1-2.07,2h0a2,2,0,1,1,2.08-2Zm-1.18-.2c-.37-1.49-.78-1.78-1.35-1.64a.7.7,0,0,0-.57.53,3.55,3.55,0,0,0,.12,1.54c.38,1.49.79,1.78,1.35,1.64S36.52,25,36.17,23.49Z" transform="translate(-1.82 -2.33)"/><path class="cls-1" d="M42.13,25.64v.06H40.36v-.06a.5.5,0,0,0,.34-.49V22.91c0-.38-.21-.91-.72-.91a1.15,1.15,0,0,0-.91.64v2.51a.49.49,0,0,0,.34.49v.06H37.63v-.06a.5.5,0,0,0,.34-.49V22.76a.5.5,0,0,0-.34-.5v-.05A2.69,2.69,0,0,0,39,21.7h0v.77s0,0,0,0A1.44,1.44,0,0,1,41.8,23v2.15A.49.49,0,0,0,42.13,25.64Z" transform="translate(-1.82 -2.33)"/><path class="cls-3" d="M3.9,29.38h0l-.13.88s0,.08-.09.08H1.86v0A.25.25,0,0,0,2,30.06V27.73a.25.25,0,0,0-.17-.25v0H3.71c.07,0,.09.09.09.09l.13.87h0a1.1,1.1,0,0,0-1.17-.91H2.64c-.07,0-.06.06-.06.06v1.26a0,0,0,0,0,0,.05h.23c.24,0,.35-.28.41-.42h0v.89h0c-.06-.14-.17-.42-.41-.42H2.63a0,0,0,0,0,0,0v1.26s0,.06.06.06h.09A1.09,1.09,0,0,0,3.9,29.38Z" transform="translate(-1.82 -2.33)"/><path class="cls-3" d="M6.54,30.31v0H5.65v0a.25.25,0,0,0,.17-.25V29c0-.19-.11-.46-.36-.46a.56.56,0,0,0-.45.32v1.25a.25.25,0,0,0,.16.25v0H4.29v0a.26.26,0,0,0,.17-.25V28.87a.26.26,0,0,0-.17-.25v0a1.33,1.33,0,0,0,.7-.25H5v.38H5a.71.71,0,0,1,.61-.39.69.69,0,0,1,.75.65v1.07A.25.25,0,0,0,6.54,30.31Z" transform="translate(-1.82 -2.33)"/><path class="cls-3" d="M9,30.86H9c0,.32-.26.7-1.2.7a2.56,2.56,0,0,1-1.12-.36c-.07,0,0-.1,0-.1L7,30.42l0,0a.92.92,0,0,0,.77,1.08.64.64,0,0,0,.64-.65.71.71,0,0,0-.7-.67h-.6s0,0,0,0l.15-.3h0a.81.81,0,0,1-.45-.73,1,1,0,0,1,1.07-.79,1.36,1.36,0,0,1,.35.07h0a.81.81,0,0,1,.48-.47h0v.46h0a.35.35,0,0,0-.45,0h0a.86.86,0,0,1,.61.8A.94.94,0,0,1,7.8,30a1,1,0,0,1-.5-.13,0,0,0,0,0,0,0l-.13.27h.58C8.72,30.16,9,30.53,9,30.86Zm-1.6-1.6c.16.59.42.75.67.7s.39-.28.22-.86-.42-.75-.66-.7S7.22,28.67,7.39,29.26Z" transform="translate(-1.82 -2.33)"/><path class="cls-3" d="M10.06,30.31v0H9.18v0a.26.26,0,0,0,.17-.25V28.87a.26.26,0,0,0-.17-.25v0a1.28,1.28,0,0,0,.69-.25h0v1.72A.26.26,0,0,0,10.06,30.31Zm-.5-2.11a.33.33,0,1,1,.33-.33A.33.33,0,0,1,9.56,28.2Z" transform="translate(-1.82 -2.33)"/><path class="cls-3" d="M12.7,30.31v0h-.89v0a.25.25,0,0,0,.17-.25V29c0-.19-.1-.46-.35-.46a.58.58,0,0,0-.46.32v1.25a.25.25,0,0,0,.17.25v0h-.89v0a.25.25,0,0,0,.17-.25V28.87a.25.25,0,0,0-.17-.25v0a1.3,1.3,0,0,0,.7-.25h0v.38h0a.72.72,0,0,1,.61-.39.68.68,0,0,1,.75.65v1.07A.25.25,0,0,0,12.7,30.31Z" transform="translate(-1.82 -2.33)"/><path class="cls-3" d="M13.54,29.53c.19.72,1.1.45,1.23.31v0a.94.94,0,0,1-.78.47,1,1,0,0,1-1.06-1.1A1,1,0,0,1,14,28.35a.85.85,0,0,1,.78.62.05.05,0,0,1,0,.06l-1.2.45S13.54,29.53,13.54,29.53Zm0-.14a0,0,0,0,0,0,0s0,0,0,0l.66-.25s0-.05,0-.05c0-.33-.09-.74-.36-.74S13.47,29.09,13.51,29.39Z" transform="translate(-1.82 -2.33)"/><path class="cls-3" d="M15.75,29.53c.19.72,1.1.45,1.23.31v0a.94.94,0,0,1-.78.47,1,1,0,0,1-1.06-1.1,1,1,0,0,1,1.08-.88A.86.86,0,0,1,17,29,.05.05,0,0,1,17,29l-1.21.45S15.74,29.53,15.75,29.53Zm0-.14a0,0,0,0,0,0,0s0,0,0,0l.67-.25s0-.05,0-.05c0-.33-.09-.74-.36-.74S15.68,29.09,15.72,29.39Z" transform="translate(-1.82 -2.33)"/><path class="cls-3" d="M19.08,28.56l-.2.62h0c0-.29-.09-.62-.32-.62s-.49.49-.51.55v.95a.25.25,0,0,0,.17.25v0H17.3v0a.25.25,0,0,0,.17-.25V28.87a.25.25,0,0,0-.17-.25v0a1.3,1.3,0,0,0,.7-.25h0V29s0,0,0,0,.22-.62.59-.62a.65.65,0,0,1,.44.14A.07.07,0,0,1,19.08,28.56Z" transform="translate(-1.82 -2.33)"/><path class="cls-3" d="M20.3,30.31v0h-.88v0a.25.25,0,0,0,.16-.25V28.87a.25.25,0,0,0-.16-.25v0a1.28,1.28,0,0,0,.69-.25h0v1.72A.26.26,0,0,0,20.3,30.31Zm-.5-2.11a.33.33,0,1,1,.33-.33A.33.33,0,0,1,19.8,28.2Z" transform="translate(-1.82 -2.33)"/><path class="cls-3" d="M22.94,30.31v0h-.89v0a.25.25,0,0,0,.17-.25V29c0-.19-.1-.46-.35-.46a.58.58,0,0,0-.46.32v1.25a.25.25,0,0,0,.17.25v0h-.89v0a.25.25,0,0,0,.17-.25V28.87a.25.25,0,0,0-.17-.25v0a1.3,1.3,0,0,0,.7-.25h0v.38h0a.72.72,0,0,1,.61-.39.68.68,0,0,1,.75.65v1.07A.25.25,0,0,0,22.94,30.31Z" transform="translate(-1.82 -2.33)"/><path class="cls-3" d="M25.4,30.86h0c0,.32-.27.7-1.21.7a2.61,2.61,0,0,1-1.12-.36c-.06,0,0-.1,0-.1l.33-.68,0,0a.92.92,0,0,0,.77,1.08.64.64,0,0,0,.64-.65.7.7,0,0,0-.7-.67h-.6s0,0,0,0l.14-.3s0,0,0,0a.82.82,0,0,1-.45-.73,1,1,0,0,1,1.07-.79,1.28,1.28,0,0,1,.35.07h0a.84.84,0,0,1,.48-.47h0v.46h0a.34.34,0,0,0-.44,0s0,0,0,0a.84.84,0,0,1,.6.8A.94.94,0,0,1,24.2,30a1.06,1.06,0,0,1-.5-.13,0,0,0,0,0,0,0l-.13.27h.58C25.12,30.16,25.4,30.53,25.4,30.86Zm-1.61-1.6c.16.59.42.75.67.7s.39-.28.23-.86-.42-.75-.67-.7S23.62,28.67,23.79,29.26Z" transform="translate(-1.82 -2.33)"/><path class="cls-3" d="M28.79,29.6c0,.66-.65.74-1,.74a1.33,1.33,0,0,1-.9-.27.08.08,0,0,1,0-.09l.13-.61h0c0,.29.33.92.79.92a.45.45,0,0,0,.46-.51c-.1-.57-1.43-.69-1.43-1.59,0-.66.74-.74,1-.74a2,2,0,0,1,.77.19.08.08,0,0,1,.05.1l-.17.59h0a.85.85,0,0,0-.65-.83.44.44,0,0,0-.44.49C27.37,28.64,28.79,28.76,28.79,29.6Z" transform="translate(-1.82 -2.33)"/><path class="cls-3" d="M31.26,29.34a1,1,0,0,1-1,1h0a1,1,0,1,1,0-2A1,1,0,0,1,31.26,29.34Zm-.59-.11c-.19-.74-.39-.88-.67-.81a.35.35,0,0,0-.29.26,1.7,1.7,0,0,0,.06.77c.19.74.4.89.67.82S30.84,30,30.67,29.23Z" transform="translate(-1.82 -2.33)"/><path class="cls-3" d="M32.4,30.31v0h-.88v0a.26.26,0,0,0,.17-.25V28a.28.28,0,0,0-.17-.25v0a1.33,1.33,0,0,0,.7-.25h0v2.61A.26.26,0,0,0,32.4,30.31Z" transform="translate(-1.82 -2.33)"/><path class="cls-3" d="M34.87,30.31v0h-.59s-.13,0-.13-.16V30s0,0,0,0a.73.73,0,0,1-.61.37.68.68,0,0,1-.74-.65v-.77a.24.24,0,0,0-.17-.24v0a1.81,1.81,0,0,0,.7-.31h0v1.4c0,.18.1.45.35.45s.42-.26.46-.31v-1a.24.24,0,0,0-.17-.24v0a1.75,1.75,0,0,0,.7-.31h0v1.72A.25.25,0,0,0,34.87,30.31Z" transform="translate(-1.82 -2.33)"/><path class="cls-3" d="M36.19,30.16a.61.61,0,0,1-.37.18c-.3,0-.54-.2-.54-.65V28.43c0-.05,0,0,0,0h-.13v-.05a1.23,1.23,0,0,0,.69-.56h0v.53s0,0,0,0h.25v.05h-.25s0,0,0,0V30c0,.27.18.27.36.18Z" transform="translate(-1.82 -2.33)"/><path class="cls-3" d="M37.35,30.31v0h-.88v0a.26.26,0,0,0,.17-.25V28.87a.26.26,0,0,0-.17-.25v0a1.33,1.33,0,0,0,.7-.25h0v1.72A.25.25,0,0,0,37.35,30.31Zm-.5-2.11a.33.33,0,1,1,0-.66.33.33,0,1,1,0,.66Z" transform="translate(-1.82 -2.33)"/><path class="cls-3" d="M39.68,29.34a1,1,0,0,1-1,1h0a1,1,0,1,1,1-1Zm-.58-.11c-.19-.74-.39-.88-.68-.81a.33.33,0,0,0-.28.26,1.7,1.7,0,0,0,.06.77c.18.74.39.89.67.82S39.27,30,39.1,29.23Z" transform="translate(-1.82 -2.33)"/><path class="cls-3" d="M42.18,30.31v0H41.3v0a.25.25,0,0,0,.16-.25V29c0-.19-.1-.46-.35-.46a.58.58,0,0,0-.46.32v1.25a.25.25,0,0,0,.17.25v0h-.89v0a.25.25,0,0,0,.17-.25V28.87a.25.25,0,0,0-.17-.25v0a1.3,1.3,0,0,0,.7-.25h0v.38s0,0,0,0A.72.72,0,0,1,42,29v1.07A.26.26,0,0,0,42.18,30.31Z" transform="translate(-1.82 -2.33)"/><path class="cls-4" d="M19.06,36.27v1.11a3.26,3.26,0,0,0,.48,1.72l2.45,4,2.46-4a3.24,3.24,0,0,0,.49-1.72V36.27Z" transform="translate(-1.82 -2.33)"/><path class="cls-3" d="M22,40.31a3.79,3.79,0,0,0-1.47.3v.09L22,43.1l1.48-2.39v-.1A3.79,3.79,0,0,0,22,40.31Z" transform="translate(-1.82 -2.33)"/><path class="cls-3" d="M19,33v4.22a1,1,0,0,0,2,0,1,1,0,0,0,2,0,1,1,0,1,0,2,0V33Z" transform="translate(-1.82 -2.33)"/><path class="cls-2" d="M21,33v4.22a1,1,0,0,0,2,0V33Z" transform="translate(-1.82 -2.33)"/><path class="cls-2" d="M29.18,9.52a7,7,0,0,1-.69,3,6.87,6.87,0,0,1-1.88,2.71,5.47,5.47,0,0,0-1.55,2.59H18.87a5.56,5.56,0,0,0-1.54-2.6,7.36,7.36,0,0,1-2.17-3.56A6.62,6.62,0,0,1,14.84,10c0-.29,0-.47,0-.47a7.19,7.19,0,0,1,14.37,0Z" transform="translate(-1.82 -2.33)"/><path class="cls-4" d="M25.52,9.15l.12-.23a2,2,0,0,0,.08-2.12,2,2,0,0,0-2.09-.39l-.4.11A4,4,0,0,0,23,6.18c-.59-.79-1.25-1.16-1.85-1s-1.07.72-1.31,1.68c0,.08,0,.16-.05.25l-.26,0c-1,.09-1.64.46-1.85,1a2,2,0,0,0,.75,2l.19.18-.12.23a2,2,0,0,0-.08,2.13A1.24,1.24,0,0,0,19,13a2.63,2.63,0,0,0,1.53,0l.4-.11a4,4,0,0,0,.23.34,2.66,2.66,0,0,0,1.18,1,1.11,1.11,0,0,0,.67.06c.6-.12,1.07-.71,1.31-1.68,0-.08,0-.16.05-.25h.26c1-.1,1.65-.47,1.85-1a2,2,0,0,0-.75-2ZM23.66,6.56a2.52,2.52,0,0,1,1.45,0,1.07,1.07,0,0,1,.49.33c.39.49.28,1.28-.19,2.16a7.45,7.45,0,0,0-1.45-1,6.47,6.47,0,0,0-.65-1.43Zm.47,2.75a9.15,9.15,0,0,1,.17,1.22,9.06,9.06,0,0,1-.91.83,8,8,0,0,1-.94.66,9.68,9.68,0,0,1-1.1-.32,10.07,10.07,0,0,1-1.05-.46,9.32,9.32,0,0,1-.29-1.1,9.07,9.07,0,0,1-.17-1.23,10.75,10.75,0,0,1,.92-.83,8.29,8.29,0,0,1,.93-.66,9.68,9.68,0,0,1,1.1.32,10.07,10.07,0,0,1,1.05.46A9,9,0,0,1,24.13,9.31ZM23.77,8q-.45-.21-.93-.39a8.76,8.76,0,0,0-1-.29,6.22,6.22,0,0,1,1.29-.6A7.21,7.21,0,0,1,23.77,8Zm-2.59-2.7a1.09,1.09,0,0,1,.59,0,2.6,2.6,0,0,1,1.11.94,3,3,0,0,1,.2.29,7.69,7.69,0,0,0-1.42.69,7.58,7.58,0,0,0-1.72-.2C20.14,6.09,20.57,5.41,21.18,5.29ZM19.91,7.22a7.42,7.42,0,0,1,1.57.15c-.28.18-.55.38-.82.59s-.57.49-.83.74A7.73,7.73,0,0,1,19.91,7.22Zm-.05,3a9.83,9.83,0,0,0,.25,1,7.37,7.37,0,0,1-1.3-.88,7.08,7.08,0,0,1,.89-1.19A8.58,8.58,0,0,0,19.86,10.17Zm-2-2c.21-.58.95-.91,1.94-1a7.3,7.3,0,0,0-.07,1.64,7.3,7.3,0,0,0-1,1.3C18,9.48,17.61,8.76,17.82,8.18Zm2.66,4.7c-.91.22-1.59.1-1.94-.33s-.28-1.28.19-2.16a7.45,7.45,0,0,0,1.45,1,6.77,6.77,0,0,0,.65,1.44Zm-.11-1.43a9.58,9.58,0,0,0,.93.39,8.84,8.84,0,0,0,1,.3,7.45,7.45,0,0,1-1.29.6A8.11,8.11,0,0,1,20.37,11.45ZM23,14.15c-.54.11-1.14-.24-1.7-1l-.2-.3a7.62,7.62,0,0,0,1.42-.68,7.55,7.55,0,0,0,1.72.19C24,13.35,23.57,14,23,14.15Zm1.27-1.92a7.47,7.47,0,0,1-1.57-.16,8.89,8.89,0,0,0,.82-.59,8.42,8.42,0,0,0,.83-.74A7.84,7.84,0,0,1,24.23,12.23Zm.05-3a9.35,9.35,0,0,0-.25-1,7.37,7.37,0,0,1,1.3.88,7.56,7.56,0,0,1-.89,1.2A8.58,8.58,0,0,0,24.28,9.28Zm2,2c-.21.59-.95.91-1.94,1a7.21,7.21,0,0,0,.07-1.63,8.09,8.09,0,0,0,1-1.3C26.18,10,26.53,10.68,26.32,11.26Z" transform="translate(-1.82 -2.33)"/><polygon class="cls-4" points="19.56 8.19 20.2 7.83 20.86 8.16 20.72 7.44 21.23 6.92 20.5 6.83 20.17 6.18 19.86 6.84 19.14 6.96 19.67 7.46 19.56 8.19"/></svg>