<svg id="Layer_1" data-name="Layer 1" xmlns="http://www.w3.org/2000/svg" viewBox="0 0 40.86 45.9"><defs><style>.cls-1{fill:#063f20;}.cls-2{fill:#006867;}.cls-3{fill:#f8961d;}.cls-4{fill:#fff;}</style></defs><title>logo-light</title><path class="cls-1" d="M92.66,9.07l-.2-.71H63.54l-.2.71c-.88,3.11-1.6,6-2.16,8.7h2c.49-2.3,1.11-4.81,1.85-7.46H91c.74,2.65,1.36,5.16,1.85,7.46h2C94.26,15.1,93.54,12.18,92.66,9.07Z" transform="translate(-57.57 -2.05)"/><path class="cls-1" d="M92.82,33.1c-3,5.35-10,10.14-14.79,12.65-2.85-1.52-11.47-6.51-14.86-12.65H61c3.36,7.24,13.16,12.84,16.58,14.62L78,48l.44-.23C80,47,91.31,41,95,33.1Z" transform="translate(-57.57 -2.05)"/><path class="cls-2" d="M61.49,20l.28,1.77h-.06A2.23,2.23,0,0,0,59.34,20h-.19c-.14,0-.13.12-.13.12v2.56s0,.11.1.11h.48c.49,0,.69-.58.82-.87h.06v1.81h-.06c-.13-.28-.33-.85-.82-.85h-.48a.1.1,0,0,0-.1.1v2.23a.5.5,0,0,0,.35.49v.06h-1.8v-.06a.51.51,0,0,0,.34-.5V20.41a.49.49,0,0,0-.34-.49v-.06H61.3A.18.18,0,0,1,61.49,20Z" transform="translate(-57.57 -2.05)"/><path class="cls-2" d="M65.43,23.67a2.06,2.06,0,0,1-2.1,2h0a2,2,0,1,1,2.11-2Zm-1.19-.2c-.38-1.5-.79-1.8-1.37-1.66a.69.69,0,0,0-.57.54,3.44,3.44,0,0,0,.11,1.56c.38,1.5.8,1.8,1.37,1.66S64.59,25,64.24,23.47Z" transform="translate(-57.57 -2.05)"/><path class="cls-2" d="M70.31,25.65v.06H69.12s-.26,0-.26-.33V25s0,0,0,0a1.42,1.42,0,0,1-1.22.76,1.39,1.39,0,0,1-1.52-1.32V22.84a.49.49,0,0,0-.34-.5v-.06a3.65,3.65,0,0,0,1.42-.62h0v2.83c0,.37.21.91.71.91a1.18,1.18,0,0,0,.93-.63.18.18,0,0,0,0-.06V22.83a.5.5,0,0,0-.34-.49v-.06a3.58,3.58,0,0,0,1.41-.62h0v3.49A.51.51,0,0,0,70.31,25.65Z" transform="translate(-57.57 -2.05)"/><path class="cls-2" d="M75.38,25.65v.06h-1.8v-.06a.5.5,0,0,0,.34-.5V22.88c0-.38-.21-.91-.72-.91a1.19,1.19,0,0,0-.93.64v2.54a.51.51,0,0,0,.35.5v.06h-1.8v-.06a.51.51,0,0,0,.34-.5V22.73a.5.5,0,0,0-.34-.5v-.06a2.76,2.76,0,0,0,1.42-.51h0v.78s0,0,0,0a1.43,1.43,0,0,1,1.23-.78A1.39,1.39,0,0,1,75,23v2.18A.5.5,0,0,0,75.38,25.65Z" transform="translate(-57.57 -2.05)"/><path class="cls-2" d="M80.13,25.65v.06H78.94s-.24,0-.26-.3c0,0,0,0,0,0a1.77,1.77,0,0,1-1,.32,2,2,0,0,1-1.93-2,2,2,0,0,1,2-2,1.12,1.12,0,0,1,.94.44s0,0,0,0V20.92a.53.53,0,0,0-.34-.5v-.05a2.71,2.71,0,0,0,1.41-.51h0v5.29A.51.51,0,0,0,80.13,25.65Zm-1.45-1.14V22.38a.72.72,0,0,0-.54-.51c-.57-.12-1.06.58-1.27,1.63s0,2,.53,2.08,1-.2,1.27-1C78.68,24.56,78.68,24.53,78.68,24.51Z" transform="translate(-57.57 -2.05)"/><path class="cls-2" d="M84.58,25.65v.06H83.33a.21.21,0,0,1-.21-.23V25s0,0,0,0a1.33,1.33,0,0,1-1.24.66c-.55,0-1.39-.31-1.39-1.1,0-1.42,2.16-1.54,2.59-1.56,0,0,.07,0,.07-.06v-.31a.86.86,0,0,0-.78-.93c-1,0-1,.93-1.11,1.49h-.06l-.44-1a.14.14,0,0,1,.06-.19,3,3,0,0,1,1.56-.34c1.43,0,1.89.83,1.89,1.33v2.16A.51.51,0,0,0,84.58,25.65Zm-1.46-.85V23.21c0-.06,0-.06-.06-.06-.74.12-1.49.36-1.49,1.36a.81.81,0,0,0,1.54.34A.2.2,0,0,0,83.12,24.8Z" transform="translate(-57.57 -2.05)"/><path class="cls-2" d="M86.89,25.34a1.12,1.12,0,0,1-.73.37c-.63,0-1.11-.39-1.11-1.31V21.83a.07.07,0,0,0-.08-.08H84.7v-.09a2.49,2.49,0,0,0,1.41-1.14h0V21.6c0,.07,0,.06.07.06h.5v.09h-.5a.06.06,0,0,0-.07.07v3.11c0,.55.37.56.73.38Z" transform="translate(-57.57 -2.05)"/><path class="cls-2" d="M89,25.65v.06h-1.8v-.06a.5.5,0,0,0,.34-.5V22.73a.49.49,0,0,0-.34-.5v-.06a2.76,2.76,0,0,0,1.42-.51h0v3.49A.51.51,0,0,0,89,25.65Z" transform="translate(-57.57 -2.05)"/><path class="cls-3" d="M88,21.38A.68.68,0,1,1,88,20a.68.68,0,1,1,0,1.36Z" transform="translate(-57.57 -2.05)"/><path class="cls-2" d="M93.54,23.67a2.06,2.06,0,0,1-2.1,2h0a2,2,0,1,1,2.11-2Zm-1.19-.2C92,22,91.56,21.67,91,21.81a.69.69,0,0,0-.57.54,3.44,3.44,0,0,0,.11,1.56c.38,1.5.8,1.8,1.37,1.66S92.7,25,92.35,23.47Z" transform="translate(-57.57 -2.05)"/><path class="cls-2" d="M98.38,25.65v.06H96.59v-.06a.51.51,0,0,0,.34-.5V22.88c0-.38-.22-.91-.72-.91a1.17,1.17,0,0,0-.93.64v2.54a.51.51,0,0,0,.34.5v.06h-1.8v-.06a.51.51,0,0,0,.35-.5V22.73a.5.5,0,0,0-.35-.5v-.06a2.76,2.76,0,0,0,1.42-.51h0v.78s0,0,0,0a1.43,1.43,0,0,1,1.23-.78A1.38,1.38,0,0,1,98,23v2.18A.51.51,0,0,0,98.38,25.65Z" transform="translate(-57.57 -2.05)"/><path class="cls-1" d="M59.68,29.43h0l-.13.89s0,.08-.09.08H57.62v0a.26.26,0,0,0,.17-.25V27.76a.26.26,0,0,0-.17-.25v0h1.87c.07,0,.09.09.09.09l.13.88h0a1.11,1.11,0,0,0-1.18-.92h-.09c-.08,0-.07.06-.07.06v1.28a0,0,0,0,0,0,.05h.24c.24,0,.35-.29.41-.43h0v.9h0c-.06-.14-.17-.42-.41-.42h-.24a0,0,0,0,0,0,.05V30.3s0,.06.07.06h.09A1.11,1.11,0,0,0,59.68,29.43Z" transform="translate(-57.57 -2.05)"/><path class="cls-1" d="M62.35,30.37v0h-.9v0a.25.25,0,0,0,.17-.25V29c0-.19-.11-.45-.36-.45a.58.58,0,0,0-.46.32v1.26a.25.25,0,0,0,.17.25v0h-.9v0a.25.25,0,0,0,.17-.25v-1.2a.25.25,0,0,0-.17-.25v0a1.46,1.46,0,0,0,.71-.25h0v.38h0a.71.71,0,0,1,.62-.39.69.69,0,0,1,.76.65v1.08A.25.25,0,0,0,62.35,30.37Z" transform="translate(-57.57 -2.05)"/><path class="cls-1" d="M64.84,30.93h0c0,.33-.27.71-1.23.71a2.76,2.76,0,0,1-1.13-.36c-.07,0,0-.1,0-.1l.33-.69h0a.94.94,0,0,0,.78,1.1.64.64,0,0,0,.65-.66.69.69,0,0,0-.71-.67H63c-.05,0,0,0,0,0l.15-.3h0a.84.84,0,0,1-.46-.74,1,1,0,0,1,1.09-.79,1,1,0,0,1,.35.06h0a.88.88,0,0,1,.48-.48h0v.47h0a.34.34,0,0,0-.44,0s0,0,0,0a.88.88,0,0,1,.61.81,1,1,0,0,1-1.09.8,1.2,1.2,0,0,1-.5-.14h0l-.14.27h.59C64.55,30.23,64.84,30.6,64.84,30.93Zm-1.63-1.61c.16.59.42.75.68.7s.4-.28.23-.87-.43-.75-.68-.71S63,28.72,63.21,29.32Z" transform="translate(-57.57 -2.05)"/><path class="cls-1" d="M65.92,30.37v0H65v0a.25.25,0,0,0,.17-.25v-1.2a.25.25,0,0,0-.17-.25v0a1.46,1.46,0,0,0,.71-.25h0v1.73A.25.25,0,0,0,65.92,30.37Zm-.51-2.13a.34.34,0,1,1,0-.67.34.34,0,1,1,0,.67Z" transform="translate(-57.57 -2.05)"/><path class="cls-1" d="M68.59,30.37v0h-.9v0a.25.25,0,0,0,.17-.25V29c0-.19-.11-.45-.36-.45a.58.58,0,0,0-.46.32v1.26a.25.25,0,0,0,.17.25v0h-.9v0a.25.25,0,0,0,.17-.25v-1.2a.25.25,0,0,0-.17-.25v0a1.46,1.46,0,0,0,.71-.25h0v.38h0a.71.71,0,0,1,.62-.39.69.69,0,0,1,.76.65v1.08A.25.25,0,0,0,68.59,30.37Z" transform="translate(-57.57 -2.05)"/><path class="cls-1" d="M69.44,29.59c.19.72,1.11.45,1.24.31v0a.94.94,0,0,1-.78.48,1.06,1.06,0,0,1-1.08-1.11,1,1,0,0,1,1.09-.9.86.86,0,0,1,.79.63.06.06,0,0,1,0,.06l-1.23.46S69.43,29.58,69.44,29.59Zm0-.15v0s0,0,0,0l.68-.25s0,0,0,0c0-.33-.08-.75-.36-.75S69.37,29.14,69.41,29.44Z" transform="translate(-57.57 -2.05)"/><path class="cls-1" d="M71.67,29.59c.2.72,1.12.45,1.25.31v0a1,1,0,0,1-.79.48,1,1,0,0,1-1.07-1.11,1,1,0,0,1,1.09-.9A.87.87,0,0,1,73,29a.05.05,0,0,1,0,.06l-1.22.46S71.67,29.58,71.67,29.59Zm0-.15a0,0,0,0,0,0,0s0,0,0,0l.67-.25s0,0,0,0c0-.33-.09-.75-.36-.75S71.6,29.14,71.64,29.44Z" transform="translate(-57.57 -2.05)"/><path class="cls-1" d="M75.05,28.6l-.21.63h0c0-.29-.09-.63-.32-.63s-.49.5-.52.56v1a.26.26,0,0,0,.17.25v0h-.89v0a.26.26,0,0,0,.17-.25v-1.2a.26.26,0,0,0-.17-.25v0a1.41,1.41,0,0,0,.7-.25h0V29s0,0,0,0,.23-.61.6-.61a.68.68,0,0,1,.45.13A.07.07,0,0,1,75.05,28.6Z" transform="translate(-57.57 -2.05)"/><path class="cls-1" d="M76.28,30.37v0h-.89v0a.26.26,0,0,0,.17-.25v-1.2a.26.26,0,0,0-.17-.25v0a1.41,1.41,0,0,0,.7-.25h0v1.73A.26.26,0,0,0,76.28,30.37Zm-.51-2.13a.34.34,0,1,1,.34-.34A.34.34,0,0,1,75.77,28.24Z" transform="translate(-57.57 -2.05)"/><path class="cls-1" d="M79,30.37v0h-.89v0a.26.26,0,0,0,.17-.25V29c0-.19-.11-.45-.36-.45a.6.6,0,0,0-.47.32v1.26a.26.26,0,0,0,.17.25v0h-.89v0a.26.26,0,0,0,.17-.25v-1.2a.26.26,0,0,0-.17-.25v0a1.41,1.41,0,0,0,.7-.25h0v.38s0,0,0,0a.73.73,0,0,1,1.37.26v1.08A.25.25,0,0,0,79,30.37Z" transform="translate(-57.57 -2.05)"/><path class="cls-1" d="M81.44,30.93h0c0,.33-.27.71-1.22.71a2.87,2.87,0,0,1-1.14-.36c-.06,0,0-.1,0-.1l.34-.69h0a.93.93,0,0,0,.78,1.1.65.65,0,0,0,.65-.66.7.7,0,0,0-.71-.67h-.61s0,0,0,0l.14-.3s0,0,0,0a.84.84,0,0,1-.46-.74,1,1,0,0,1,1.09-.79,1.09,1.09,0,0,1,.36.06h0a.85.85,0,0,1,.48-.48h0v.47h0a.35.35,0,0,0-.45,0h0a.85.85,0,0,1,.61.81,1,1,0,0,1-1.08.8,1.21,1.21,0,0,1-.51-.14h0l-.13.27h.59C81.16,30.23,81.44,30.6,81.44,30.93Zm-1.63-1.61c.17.59.43.75.68.7s.4-.28.23-.87-.42-.75-.67-.71S79.64,28.72,79.81,29.32Z" transform="translate(-57.57 -2.05)"/><path class="cls-1" d="M84.87,29.65c0,.67-.66.75-1,.75a1.31,1.31,0,0,1-.91-.27s0-.05,0-.09l.13-.62h0c0,.3.34.94.81.94a.45.45,0,0,0,.45-.52c-.09-.58-1.44-.7-1.44-1.61,0-.67.75-.75,1-.75a2.26,2.26,0,0,1,.78.19.08.08,0,0,1,0,.1l-.17.6h0c0-.32-.32-.84-.65-.84a.45.45,0,0,0-.46.5C83.43,28.69,84.87,28.81,84.87,29.65Z" transform="translate(-57.57 -2.05)"/><path class="cls-1" d="M87.37,29.39a1,1,0,0,1-1,1h0a1,1,0,1,1,0-2A1,1,0,0,1,87.37,29.39Zm-.59-.1c-.19-.75-.4-.9-.68-.83a.35.35,0,0,0-.29.27,1.75,1.75,0,0,0,.06.78c.19.75.4.89.68.82S87,30,86.78,29.29Z" transform="translate(-57.57 -2.05)"/><path class="cls-1" d="M88.53,30.37v0h-.89v0a.26.26,0,0,0,.17-.25V28a.26.26,0,0,0-.17-.25v0a1.36,1.36,0,0,0,.7-.26h0v2.64A.26.26,0,0,0,88.53,30.37Z" transform="translate(-57.57 -2.05)"/><path class="cls-1" d="M91,30.37v0h-.6s-.13,0-.13-.16V30s0,0,0,0a.73.73,0,0,1-.61.37.69.69,0,0,1-.76-.66V29a.25.25,0,0,0-.17-.25v0a1.9,1.9,0,0,0,.71-.3h0v1.4c0,.19.1.46.35.46a.61.61,0,0,0,.47-.32V29a.25.25,0,0,0-.17-.25v0a1.9,1.9,0,0,0,.71-.3h0v1.73A.25.25,0,0,0,91,30.37Z" transform="translate(-57.57 -2.05)"/><path class="cls-1" d="M92.36,30.22a.57.57,0,0,1-.36.18c-.32,0-.56-.19-.56-.65V28.47s0,0,0,0h-.13v0a1.28,1.28,0,0,0,.7-.57h0v.53s0,0,0,0h.25v0H92s0,0,0,0V30c0,.27.19.28.37.18Z" transform="translate(-57.57 -2.05)"/><path class="cls-1" d="M93.54,30.37v0h-.89v0a.26.26,0,0,0,.17-.25v-1.2a.26.26,0,0,0-.17-.25v0a1.41,1.41,0,0,0,.7-.25h0v1.73A.26.26,0,0,0,93.54,30.37ZM93,28.24a.34.34,0,1,1,.34-.34A.34.34,0,0,1,93,28.24Z" transform="translate(-57.57 -2.05)"/><path class="cls-1" d="M95.9,29.39a1,1,0,0,1-1.05,1h0a1,1,0,1,1,1.05-1Zm-.59-.1c-.19-.75-.4-.9-.68-.83a.34.34,0,0,0-.29.27,1.61,1.61,0,0,0,.06.78c.19.75.4.89.68.82S95.48,30,95.31,29.29Z" transform="translate(-57.57 -2.05)"/><path class="cls-1" d="M98.43,30.37v0h-.9v0a.25.25,0,0,0,.17-.25V29c0-.19-.1-.45-.36-.45a.58.58,0,0,0-.46.32v1.26a.25.25,0,0,0,.17.25v0h-.9v0a.25.25,0,0,0,.17-.25v-1.2a.25.25,0,0,0-.17-.25v0a1.46,1.46,0,0,0,.71-.25h0v.38s0,0,0,0a.67.67,0,0,1,.61-.39.69.69,0,0,1,.76.65v1.08A.25.25,0,0,0,98.43,30.37Z" transform="translate(-57.57 -2.05)"/><path class="cls-4" d="M75,36.41v1.12a3.31,3.31,0,0,0,.49,1.74l2.48,4,2.49-4a3.28,3.28,0,0,0,.5-1.74V36.41Z" transform="translate(-57.57 -2.05)"/><path class="cls-1" d="M78,40.5a3.71,3.71,0,0,0-1.49.31v.09L78,43.32l1.5-2.42v-.09A3.71,3.71,0,0,0,78,40.5Z" transform="translate(-57.57 -2.05)"/><path class="cls-1" d="M74.94,33.1v4.28a1,1,0,0,0,2,0,1,1,0,0,0,1,1,1,1,0,0,0,1-1,1,1,0,1,0,2,0V33.1Z" transform="translate(-57.57 -2.05)"/><path class="cls-3" d="M77,33.1v4.28a1,1,0,0,0,1,1,1,1,0,0,0,1-1V33.1Z" transform="translate(-57.57 -2.05)"/><path class="cls-3" d="M85.27,9.33a7.1,7.1,0,0,1-.7,3.08,7,7,0,0,1-1.9,2.74,5.6,5.6,0,0,0-1.57,2.62H74.83a5.57,5.57,0,0,0-1.56-2.63,7.41,7.41,0,0,1-2.2-3.6,7.82,7.82,0,0,1-.32-1.76c0-.29,0-.47,0-.47a7.27,7.27,0,0,1,14.54,0Z" transform="translate(-57.57 -2.05)"/><path class="cls-4" d="M81.57,9l.12-.23a2,2,0,0,0,.07-2.16,2,2,0,0,0-2.11-.39l-.4.11L79,6c-.6-.8-1.26-1.18-1.87-1.06s-1.08.73-1.32,1.71l-.06.25-.26,0c-1,.09-1.66.46-1.88,1a2,2,0,0,0,.77,2l.19.18-.12.23a2,2,0,0,0-.08,2.15,1.19,1.19,0,0,0,.56.39,2.81,2.81,0,0,0,1.56,0l.4-.12a2.88,2.88,0,0,0,.23.34,2.64,2.64,0,0,0,1.2,1,1.14,1.14,0,0,0,.68.06c.6-.12,1.07-.72,1.32-1.7,0-.08,0-.17,0-.25l.26,0c1-.09,1.67-.47,1.88-1a2,2,0,0,0-.77-2ZM79.68,6.33a2.59,2.59,0,0,1,1.47,0,1.09,1.09,0,0,1,.49.34c.4.49.29,1.3-.19,2.18a8,8,0,0,0-1.46-1,7.42,7.42,0,0,0-.66-1.45Zm.48,2.78a11.49,11.49,0,0,1,.17,1.24,9.51,9.51,0,0,1-.93.84,8.13,8.13,0,0,1-.94.67,7.78,7.78,0,0,1-1.11-.33,8,8,0,0,1-1.07-.46A7.64,7.64,0,0,1,76,10a9.29,9.29,0,0,1-.17-1.23,9.45,9.45,0,0,1,.92-.85c.31-.24.63-.47,1-.67q.54.13,1.11.33A10.25,10.25,0,0,1,79.86,8,10.24,10.24,0,0,1,80.16,9.11Zm-.37-1.33c-.3-.14-.61-.27-.94-.39a9,9,0,0,0-1-.3,7.22,7.22,0,0,1,1.3-.61A7.8,7.8,0,0,1,79.79,7.78ZM77.17,5.05a1.14,1.14,0,0,1,.6,0,2.65,2.65,0,0,1,1.12,1l.21.29a7.61,7.61,0,0,0-1.44.7,7.81,7.81,0,0,0-1.74-.2C76.12,5.86,76.55,5.17,77.17,5.05ZM75.89,7a6.94,6.94,0,0,1,1.58.16,9,9,0,0,0-.83.59,8.63,8.63,0,0,0-.83.75A6.57,6.57,0,0,1,75.89,7Zm-.06,3c.07.34.16.67.26,1a6.75,6.75,0,0,1-1.32-.89,7.28,7.28,0,0,1,.9-1.21A11,11,0,0,0,75.83,10ZM73.77,8c.21-.59,1-.92,2-1a7.48,7.48,0,0,0-.07,1.66,7.41,7.41,0,0,0-1,1.32C73.91,9.29,73.56,8.56,73.77,8Zm2.69,4.76a1.89,1.89,0,0,1-2-.33c-.39-.49-.29-1.3.19-2.19a7.13,7.13,0,0,0,1.46,1,8.57,8.57,0,0,0,.66,1.46C76.69,12.67,76.58,12.71,76.46,12.73Zm-.11-1.45a9.82,9.82,0,0,0,.94.4,9.16,9.16,0,0,0,1,.3,8.06,8.06,0,0,1-1.31.61A8.36,8.36,0,0,1,76.35,11.28ZM79,14c-.55.11-1.16-.24-1.73-1a2.23,2.23,0,0,1-.2-.3A7.47,7.47,0,0,0,78.48,12a7.26,7.26,0,0,0,1.75.19C80,13.21,79.59,13.9,79,14Zm1.27-1.95a7,7,0,0,1-1.58-.16c.28-.18.56-.38.83-.59a10.27,10.27,0,0,0,.84-.76A7.22,7.22,0,0,1,80.25,12.07Zm.06-3a9.35,9.35,0,0,0-.25-1A6.66,6.66,0,0,1,81.37,9a6.76,6.76,0,0,1-.9,1.21A8.88,8.88,0,0,0,80.31,9.08Zm2.06,2c-.21.59-1,.92-2,1a7.34,7.34,0,0,0,.08-1.65,7.41,7.41,0,0,0,1-1.32C82.23,9.78,82.59,10.51,82.37,11.1Z" transform="translate(-57.57 -2.05)"/><polygon class="cls-4" points="19.8 8.29 20.45 7.93 21.11 8.26 20.97 7.53 21.49 7 20.76 6.91 20.41 6.25 20.1 6.93 19.37 7.05 19.91 7.55 19.8 8.29"/></svg>